<?xml version="1.0" encoding="UTF-8" standalone="no"?>
<svg
   version="1.0"
   width="36.000000pt"
   height="36.000000pt"
   viewBox="0 0 36.000000 36.000000"
   preserveAspectRatio="xMidYMid meet"
   id="svg100"
   sodipodi:docname="active_zone_minutes.svg"
   inkscape:version="1.2.2 (b0a8486, 2022-12-01)"
   xmlns:inkscape="http://www.inkscape.org/namespaces/inkscape"
   xmlns:sodipodi="http://sodipodi.sourceforge.net/DTD/sodipodi-0.dtd"
   xmlns="http://www.w3.org/2000/svg"
   xmlns:svg="http://www.w3.org/2000/svg">
  <defs
     id="defs104" />
  <sodipodi:namedview
     id="namedview102"
     pagecolor="#ffffff"
     bordercolor="#000000"
     borderopacity="0.25"
     inkscape:showpageshadow="2"
     inkscape:pageopacity="0.0"
     inkscape:pagecheckerboard="0"
     inkscape:deskcolor="#d1d1d1"
     inkscape:document-units="pt"
     showgrid="false"
     inkscape:zoom="4.9166667"
     inkscape:cx="25.118644"
     inkscape:cy="24.508475"
     inkscape:window-width="1461"
     inkscape:window-height="801"
     inkscape:window-x="2127"
     inkscape:window-y="216"
     inkscape:window-maximized="0"
     inkscape:current-layer="g98" />
  <g
     transform="translate(0.000000,36.000000) scale(0.100000,-0.100000)"
     fill="#000000"
     stroke="none"
     id="g98">
    <path
       d="m 240,108 c 77,-39 58,-88 -21,-53 -37,17 -41,17 -78,0 -79,-35 -98,14 -21,52 57,28 66,28 120,1 z"
       id="path270" />
    <path
       d="m 235,206 c 39,-18 55,-30 55,-44 0,-27 -26,-35 -60,-17 -37,19 -63,19 -101,-1 -33,-16 -59,-6 -59,22 0,11 58,45 107,63 1,1 27,-10 58,-23 z"
       id="path268" />
    <path
       d="m 240,297 c 47,-23 63,-53 35,-63 -9,-4 -33,1 -52,10 -34,16 -39,16 -84,0 -37,-13 -52,-15 -60,-7 -19,19 -3,40 43,62 55,25 64,25 118,-2 z"
       id="path266" />
  </g>
</svg>
