<?xml version="1.0" standalone="no"?>
<!DOCTYPE svg PUBLIC "-//W3C//DTD SVG 20010904//EN"
 "http://www.w3.org/TR/2001/REC-SVG-20010904/DTD/svg10.dtd">
<svg version="1.0" xmlns="http://www.w3.org/2000/svg"
 width="512.000000pt" height="512.000000pt" viewBox="0 0 512.000000 512.000000"
 preserveAspectRatio="xMidYMid meet">

<g transform="translate(0.000000,512.000000) scale(0.100000,-0.100000)"
fill="#000000" stroke="none">
<path d="M1398 4553 c-865 -434 -1137 -575 -1153 -596 -19 -27 -20 -46 -23
-375 -2 -229 0 -360 8 -384 13 -47 52 -78 99 -78 28 -1 274 118 1134 547
l1097 548 1098 -548 c859 -429 1105 -548 1133 -547 47 0 86 31 99 78 8 24 10
155 8 384 -3 329 -4 348 -23 375 -16 21 -288 162 -1153 596 -738 369 -1143
567 -1162 567 -19 0 -424 -198 -1162 -567z m2222 -198 l1050 -525 0 -210 0
-210 -1040 520 c-681 340 -1050 520 -1070 520 -20 0 -389 -180 -1070 -520
l-1040 -520 0 210 0 210 1048 524 c576 289 1053 525 1060 525 6 1 485 -235
1062 -524z"/>
<path d="M1400 2996 c-692 -347 -1135 -574 -1150 -591 l-25 -27 -3 -351 c-2
-239 0 -364 8 -390 13 -43 58 -77 103 -77 16 0 471 222 1127 550 l1100 550
1100 -550 c656 -328 1111 -550 1127 -550 45 0 90 34 103 77 8 26 10 150 8 388
-2 290 -6 354 -18 373 -22 35 -2278 1162 -2322 1161 -23 0 -386 -177 -1158
-563z m2220 -201 l1050 -525 0 -210 0 -210 -1040 520 c-681 340 -1050 520
-1070 520 -20 0 -389 -180 -1070 -520 l-1040 -520 0 210 0 210 1048 524 c576
289 1053 525 1060 525 6 1 485 -235 1062 -524z"/>
<path d="M1389 1430 c-1073 -537 -1137 -570 -1153 -603 -23 -50 -24 -711 -1
-761 18 -37 61 -66 99 -66 14 0 521 247 1126 550 l1100 550 1100 -550 c605
-303 1112 -550 1126 -550 38 0 81 29 99 66 23 50 22 711 -1 761 -16 33 -80 66
-1155 604 -829 414 -1148 569 -1171 568 -23 0 -391 -179 -1169 -569z m2226
-187 l1055 -528 0 -207 c0 -115 -2 -208 -5 -208 -3 0 -470 232 -1038 516 -773
387 -1041 517 -1067 517 -26 0 -294 -130 -1067 -517 -568 -284 -1035 -516
-1038 -516 -3 0 -5 93 -5 208 l0 207 1053 527 c578 290 1053 527 1054 527 2 1
478 -236 1058 -526z"/>
</g>
</svg>
