<svg class="svg-icon" style="width: 1em;height: 1em;vertical-align: middle;fill: currentColor;overflow: hidden;" viewBox="0 0 1024 1024" version="1.1" xmlns="http://www.w3.org/2000/svg"><path d="M366.709537 945.728364a294.327227 294.327227 0 0 1-45.927985-4.786861A297.561592 297.561592 0 0 1 68.630446 645.838029c0-53.043588 34.413645-138.430828 94.055338-246.717372 20.570562-34.672394 43.469867-71.414782 66.498548-108.415919 36.613013-55.372331 75.684144-112.94403 112.297157-165.987619a326.800253 326.800253 0 0 1 25.228048-32.343651c6.856854 9.185597 15.913076 20.699937 25.874921 32.343651 38.812382 53.043588 77.624763 108.415919 112.167783 165.987619 25.874921 36.871762 45.927985 73.743525 66.627921 108.415919a1222.719394 1222.719394 0 0 1 61.841061 122.129627 34.413645 34.413645 0 0 0 45.927985 18.500569 34.801769 34.801769 0 0 0 18.24182-46.186734 1322.596589 1322.596589 0 0 0-64.687303-129.374605c-21.734934-38.812382-44.763613-75.942893-68.697915-112.944031q-54.596083-85.904738-114.6259-168.186986c-13.843083-18.371194-27.427416-36.871762-38.812382-50.714846-4.657486-4.657486-6.856854-9.185597-11.51434-13.843082-2.199368-2.328743-2.199368-4.657486-4.657486-4.657486a34.28427 34.28427 0 0 0-54.984207 0l-4.657486 4.657486A60.417941 60.417941 0 0 1 323.498419 32.343651c-11.773089 16.042451-25.874921 32.343651-38.812382 50.714846-38.812382 55.372331-77.624763 110.615287-114.755275 168.186986q-36.095515 55.501706-68.697915 112.944031C36.674919 482.049779 0.061906 578.692609 0.061906 645.708654a368.846999 368.846999 0 0 0 309.464055 364.318889 437.286166 437.286166 0 0 0 57.183576 4.657485 34.54302 34.54302 0 0 0 0-68.956664z" fill="#444444" /><path d="M605.146934 565.23765a187.981301 187.981301 0 0 0-149.039545 64.687303C419.494376 673.653569 401.123182 731.225268 401.123182 802.122552c0 67.016045 18.371194 122.259002 52.784839 161.459507a181.124447 181.124447 0 0 0 142.312065 59.900443q106.604675 0 158.225143-69.215414c34.413645-46.057359 50.326721-103.499684 50.326721-172.844473 0-71.414782-18.241819-126.787113-57.183576-163.658875a213.468099 213.468099 0 0 0-142.312065-53.043588zM698.684774 908.856601c-18.241819 36.871762-50.326721 55.372331-98.454075 55.372331-43.857991 0-75.425395-16.171826-95.607833-45.669235a200.01314 200.01314 0 0 1-30.273658-116.437145A224.206191 224.206191 0 0 1 504.622866 680.510423c20.570562-34.54302 52.655464-50.714845 96.254706-50.714845 50.456096 0 84.869741 20.829311 105.440303 59.900442C719.772834 715.182817 724.559695 747.397094 724.559695 789.185092a235.720531 235.720531 0 0 1-25.874921 120.059633z m314.38029 66.757297a43.599242 43.599242 0 0 0-20.699937-6.856854h-93.925963c2.328743 0 6.856854-6.856854 9.185597-9.185597a183.194441 183.194441 0 0 1 36.871763-32.343652c18.241819-13.843083 29.756159-25.874921 38.812381-32.343651A148.392672 148.392672 0 0 0 1006.078836 866.809855a80.471004 80.471004 0 0 0 11.514339-41.529249 113.849653 113.849653 0 0 0-4.657485-27.55679 218.901832 218.901832 0 0 0-13.843083-23.158055 81.247252 81.247252 0 0 0-22.899305-16.042451A134.549589 134.549589 0 0 0 930.265317 750.37271a100.265319 100.265319 0 0 0-38.812382 6.986229 81.894125 81.894125 0 0 0-27.427416 18.371194 57.183575 57.183575 0 0 0-15.913076 25.874921 51.749842 51.749842 0 0 0-4.786861 25.874921 20.699937 20.699937 0 0 0 6.856854 16.042451 19.66494 19.66494 0 0 0 13.843083 6.856854 20.699937 20.699937 0 0 0 15.783702-8.409349 46.445483 46.445483 0 0 0 9.185597-18.371194c2.328743-6.856854 4.657486-13.843083 6.856854-13.843083A41.399874 41.399874 0 0 1 932.464685 789.185092a64.687303 64.687303 0 0 1 20.570563 4.657485 20.829311 20.829311 0 0 1 13.843082 13.972458 33.896147 33.896147 0 0 1 4.657486 20.699937 66.498547 66.498547 0 0 1-4.657486 20.699936 107.769046 107.769046 0 0 1-13.843082 20.829312 116.437145 116.437145 0 0 1-25.874922 20.699937c-4.657486 4.78686-13.713708 11.51434-27.427416 23.158054s-27.427416 25.874921-43.599242 41.529248a101.170941 101.170941 0 0 0-11.51434 16.042451 103.499684 103.499684 0 0 0-3.622489 15.783702 30.661781 30.661781 0 0 0 6.856854 18.500569 27.427416 27.427416 0 0 0 20.570563 6.727479h130.280227a25.874921 25.874921 0 0 0 18.371194-6.727479 21.34681 21.34681 0 0 0 6.856854-16.171826c-4.010613-2.458117-6.209981-9.314972-10.867467-13.972457z" fill="#444444" /></svg>