<?xml version="1.0" encoding="UTF-8" standalone="no"?>
<svg
   version="1.0"
   width="36.000000pt"
   height="36.000000pt"
   viewBox="0 0 36.000000 36.000000"
   preserveAspectRatio="xMidYMid meet"
   id="svg16"
   sodipodi:docname="fire.svg"
   inkscape:version="1.2.2 (732a01da63, 2022-12-09)"
   xmlns:inkscape="http://www.inkscape.org/namespaces/inkscape"
   xmlns:sodipodi="http://sodipodi.sourceforge.net/DTD/sodipodi-0.dtd"
   xmlns="http://www.w3.org/2000/svg"
   xmlns:svg="http://www.w3.org/2000/svg">
  <defs
     id="defs20" />
  <sodipodi:namedview
     id="namedview18"
     pagecolor="#ffffff"
     bordercolor="#000000"
     borderopacity="0.25"
     inkscape:showpageshadow="2"
     inkscape:pageopacity="0.0"
     inkscape:pagecheckerboard="0"
     inkscape:deskcolor="#d1d1d1"
     inkscape:document-units="pt"
     showgrid="false"
     inkscape:zoom="11.991353"
     inkscape:cx="29.604667"
     inkscape:cy="24.976332"
     inkscape:window-width="1920"
     inkscape:window-height="1001"
     inkscape:window-x="-9"
     inkscape:window-y="-9"
     inkscape:window-maximized="1"
     inkscape:current-layer="g14" />
  <g
     transform="translate(0.000000,36.000000) scale(0.100000,-0.100000)"
     fill="#000000"
     stroke="none"
     id="g14">
    <path
       d="m 211.05651,331.51843 c 0,-9 22,-41 49,-71 59,-66 70,-108 44,-160 -25,-51.000002 -63,-76.000002 -113,-76.000002 -51,0 -88,25 -113.999999,77.000002 -16,32 -17,44 -7,76 6,21 17,43 25,49 10.999999,9 14.999999,4 19.999999,-29 3,-22 11,-40 16,-40 6,0 8,16 4,40 -8,51 0,81 32,119 28,34 44,39 44,15 z"
       id="path229" />
  </g>
</svg>
