<?xml version="1.0" standalone="no"?>
<!DOCTYPE svg PUBLIC "-//W3C//DTD SVG 20010904//EN"
 "http://www.w3.org/TR/2001/REC-SVG-20010904/DTD/svg10.dtd">
<svg version="1.0" xmlns="http://www.w3.org/2000/svg"
 width="36.000000pt" height="36.000000pt" viewBox="0 0 36.000000 36.000000"
 preserveAspectRatio="xMidYMid meet">

<g transform="translate(0.000000,36.000000) scale(0.100000,-0.100000)"
fill="#000000" stroke="none">
<path d="M0 180 l0 -180 180 0 180 0 0 180 0 180 -180 0 -180 0 0 -180z m200
144 c0 -9 22 -41 49 -71 59 -66 70 -108 44 -160 -25 -51 -63 -76 -113 -76 -51
0 -88 25 -114 77 -16 32 -17 44 -7 76 6 21 17 43 25 49 11 9 15 4 20 -29 3
-22 11 -40 16 -40 6 0 8 16 4 40 -8 51 0 81 32 119 28 34 44 39 44 15z"/>
</g>
</svg>
