<?xml version="1.0" encoding="utf-8"?>

<!DOCTYPE svg PUBLIC "-//W3C//DTD SVG 1.1//EN" "http://www.w3.org/Graphics/SVG/1.1/DTD/svg11.dtd">
<!-- Uploaded to: SVG Repo, www.svgrepo.com, Generator: SVG Repo Mixer Tools -->
<svg height="800px" width="800px" version="1.1" id="_x32_" xmlns="http://www.w3.org/2000/svg" xmlns:xlink="http://www.w3.org/1999/xlink" 
	 viewBox="0 0 512 512"  xml:space="preserve">
<style type="text/css">
	.st0{fill:#000000;}
</style>
<g>
	<polygon class="st0" points="0.525,412.7 60.889,412.7 0,489.258 0,502.514 116.931,502.514 116.931,467.749 59.208,467.749 
		118.25,393.521 118.25,377.934 0.525,377.934 	"/>
	<polygon class="st0" points="150.434,244.368 225.888,244.368 149.775,340.068 149.775,356.629 295.938,356.629 295.938,313.175 
		223.79,313.175 297.591,220.39 297.591,200.914 150.434,200.914 	"/>
	<polygon class="st0" points="512,9.486 335.41,9.486 335.41,61.629 425.954,61.629 334.617,176.471 334.617,196.337 
		510.013,196.337 510.013,144.194 423.438,144.194 512,32.851 	"/>
</g>
</svg>