<?xml version="1.0" standalone="no"?>
<!DOCTYPE svg PUBLIC "-//W3C//DTD SVG 20010904//EN"
 "http://www.w3.org/TR/2001/REC-SVG-20010904/DTD/svg10.dtd">
<svg version="1.0" xmlns="http://www.w3.org/2000/svg"
 width="36.000000pt" height="36.000000pt" viewBox="0 0 36.000000 36.000000"
 preserveAspectRatio="xMidYMid meet">

<g transform="translate(0.000000,36.000000) scale(0.100000,-0.100000)"
fill="#000000" stroke="none">
<path d="M0 288 l0 -73 17 33 c16 32 70 82 89 82 5 0 16 -15 24 -33 12 -27 21
-33 53 -35 38 -3 51 -24 21 -36 -8 -3 -12 -11 -9 -17 4 -6 13 -8 21 -5 7 3 16
1 19 -5 4 -5 -1 -12 -9 -15 -21 -8 -10 -24 15 -24 10 0 19 -7 19 -15 0 -8 23
-25 50 -38 l50 -24 0 138 0 139 -180 0 -180 0 0 -72z"/>
<path d="M0 90 l0 -90 180 0 180 0 0 24 c0 23 -2 24 -32 15 -18 -5 -62 -9 -97
-9 -63 0 -64 0 -105 46 -22 25 -60 59 -83 76 l-43 29 0 -91z"/>
</g>
</svg>
