<?xml version="1.0" encoding="UTF-8" standalone="no"?>
<svg
   version="1.0"
   width="36.000000pt"
   height="36.000000pt"
   viewBox="0 0 36.000000 36.000000"
   preserveAspectRatio="xMidYMid meet"
   id="svg40"
   sodipodi:docname="steps_36px(1).svg"
   inkscape:version="1.2.2 (732a01da63, 2022-12-09)"
   xmlns:inkscape="http://www.inkscape.org/namespaces/inkscape"
   xmlns:sodipodi="http://sodipodi.sourceforge.net/DTD/sodipodi-0.dtd"
   xmlns="http://www.w3.org/2000/svg"
   xmlns:svg="http://www.w3.org/2000/svg">
  <defs
     id="defs44" />
  <sodipodi:namedview
     id="namedview42"
     pagecolor="#ffffff"
     bordercolor="#000000"
     borderopacity="0.25"
     inkscape:showpageshadow="2"
     inkscape:pageopacity="0.0"
     inkscape:pagecheckerboard="0"
     inkscape:deskcolor="#d1d1d1"
     inkscape:document-units="pt"
     showgrid="false"
     inkscape:zoom="16.958333"
     inkscape:cx="24"
     inkscape:cy="19.312039"
     inkscape:window-width="1920"
     inkscape:window-height="1001"
     inkscape:window-x="-9"
     inkscape:window-y="-9"
     inkscape:window-maximized="1"
     inkscape:current-layer="g38" />
  <g
     transform="translate(0.000000,36.000000) scale(0.100000,-0.100000)"
     fill="#000000"
     stroke="none"
     id="g38">
    <path
       d="m 132.2113,305.8452 c 12,-27 21,-33 53,-35 38,-3 51,-24 21,-36 -8,-3 -12,-11 -9,-17 4,-6 13,-8 21,-5 7,3 16,1 19,-5 4,-5 -1,-12 -9,-15 -21,-8 -10,-24 15,-24 11,0 19,-7 19,-16 0,-9 17,-22 40,-30.99999 33,-13 40,-21 40,-43.000002 0,-33 -18,-40 -107,-40 h -62 l -65,65.000002 C 73.211302,139.8452 39.211302,168.8452 33.211302,168.8452 c -7,0 -11,21 -11,51 0,46 4,55 36,85 19,19 41.000003,34 46.999998,34 7,0 19,-15 27,-33 z"
       id="path206" />
  </g>
</svg>
