<?xml version="1.0" standalone="no"?>
<!DOCTYPE svg PUBLIC "-//W3C//DTD SVG 20010904//EN"
 "http://www.w3.org/TR/2001/REC-SVG-20010904/DTD/svg10.dtd">
<svg version="1.0" xmlns="http://www.w3.org/2000/svg"
 width="512.000000pt" height="512.000000pt" viewBox="0 0 512.000000 512.000000"
 preserveAspectRatio="xMidYMid meet">

<g transform="translate(0.000000,512.000000) scale(0.100000,-0.100000)"
fill="#000000" stroke="none">
<path d="M4137 5110 c-384 -65 -673 -367 -716 -748 -6 -55 -6 -116 0 -161 18
-146 109 -371 251 -619 121 -212 199 -333 395 -608 l93 -131 0 -106 c0 -104 1
-108 29 -139 25 -28 36 -33 76 -33 40 0 51 5 76 33 28 31 29 35 29 137 l0 105
78 108 c441 607 672 1069 672 1340 0 138 -60 324 -144 451 -53 80 -170 195
-249 245 -169 108 -400 157 -590 126z m213 -651 c60 -27 79 -45 106 -104 29
-60 30 -116 5 -170 -46 -99 -139 -146 -245 -123 -69 15 -139 85 -154 154 -38
174 130 315 288 243z"/>
<path d="M1065 3395 c-280 -52 -506 -168 -695 -357 -294 -294 -425 -736 -345
-1158 74 -384 323 -851 713 -1335 97 -121 330 -381 414 -462 88 -85 100 -88
265 -78 116 7 118 8 151 41 31 31 34 39 29 75 -3 26 -16 52 -33 70 l-27 28 61
65 c143 153 375 447 498 631 474 707 579 1278 329 1791 -181 371 -512 615
-940 690 -98 17 -324 17 -420 -1z m365 -641 c175 -41 340 -172 419 -334 54
-110 75 -209 68 -320 -16 -246 -156 -449 -380 -550 -86 -38 -158 -53 -257 -53
-341 0 -615 259 -637 603 -7 111 14 210 68 320 78 160 243 293 414 334 80 19
224 19 305 0z"/>
<path d="M4125 2318 c-11 -6 -43 -35 -70 -63 -58 -60 -120 -87 -253 -110 -74
-13 -91 -19 -114 -45 -31 -34 -36 -75 -14 -118 23 -44 55 -56 134 -49 182 15
334 87 424 200 58 74 50 145 -22 182 -34 18 -58 19 -85 3z"/>
<path d="M3265 2045 c-105 -52 -224 -187 -301 -341 -44 -86 -46 -94 -34 -128
15 -47 53 -76 99 -76 53 0 73 19 128 117 46 84 120 169 226 259 30 26 37 38
37 69 0 90 -76 139 -155 100z"/>
<path d="M2791 1253 c-18 -17 -45 -64 -66 -118 -20 -49 -66 -148 -101 -218
-72 -144 -78 -179 -39 -225 57 -68 130 -48 187 51 89 153 188 385 188 438 0
28 -7 45 -31 68 -41 42 -96 43 -138 4z"/>
<path d="M2249 464 c-100 -67 -166 -101 -278 -144 -88 -34 -121 -67 -121 -120
0 -40 35 -88 72 -98 97 -26 493 177 533 273 29 67 -23 145 -96 145 -15 0 -62
-24 -110 -56z"/>
</g>
</svg>
